<?xml version="1.0" encoding="UTF-8"?>
<svg id="Layer_1" xmlns="http://www.w3.org/2000/svg" version="1.1" viewBox="0 0 841.89 595.28">
  <!-- Generator: Adobe Illustrator 29.0.1, SVG Export Plug-In . SVG Version: 2.1.0 Build 192)  -->
  <defs>
    <style>
      .st0 {
        fill: #fff;
      }
    </style>
  </defs>
  <g>
    <path class="st0" d="M456.85,229.25c.16.24,3.4,1.44,4.73,3.23,1.9,2.55,1.78,6.59,2.37,7.49.28.43,6.29,1.43,8.43,5.25,1.78,3.17.29,6.12,1.09,8.45.4,1.15,2.61,1.23,3.71,2.02,6.07,4.37,5.37,10.84.99,16.2-6.64,8.11-20.88,21.92-28.94,28.95-11.4,9.93-22.34,12.2-36.69,6.14-25.97-10.96-22.91-42.67-39.95-62.46-4.8-5.57-15.44-10.2-8.3-17.83,4.24-4.53,11.99-6.73,18.03-5.27,11.17,2.7,13.99,14.99,20.78,22.47,1.34,1.47,3.5,4.3,5.59,3.72l43.06-42.86c7.87-6.58,18.48-1.78,17.19,8.93-.61,5.03-13.01,14.2-12.09,15.56ZM437.09,268.72c-.19-.14-2.51.69-3.46.68-8.86-.07-13.66-9.47-8.29-16.61l37.51-37.54c3.86-5.89-2.11-10.87-7.6-6.97l-43.55,43.59c-4.13,3.97-9.91-1.89-12.75-5.08-7.47-8.38-12.52-27.1-27.78-18.91-7.85,4.21-2.22,5.19,1.11,8.69,4.94,5.19,10.66,12.81,13.85,19.22,7.74,15.54,8.37,36.74,26.16,45.71,17.73,8.94,31.39.48,42.53-13.49,2.97-3.72-.17-2.46-2.71-5.34-1.79-2.03-2.07-5.44-2.29-5.66-.36-.37-6.2.61-9.67-2.56-1.5-1.37-2.8-5.53-3.06-5.73ZM452.22,233.84c-3.96.88-18.48,18.92-23.01,22.17-3.29,5.55,1.88,10.77,7.86,6.59,2.87-2,18.15-17.21,20.05-20.02,3.07-4.53.7-9.98-4.9-8.74ZM455.8,265.11c4.05-3.9,8.22-7.67,12.03-11.82,2.39-5.5-2.43-10.21-7.49-6.85l-17.79,17.82c-1.45,3.64.47,7.55,4.46,7.68s6.33-4.46,8.79-6.83ZM464.89,278.03c1.66-1.55,10.64-10.75,11.19-12.03,2.15-4.96-3.16-8.59-7.76-5.85-1.15.69-12.72,12.42-13.24,13.49-1.94,3.95,2.12,8.35,6.41,7.02.37-.11,2.89-2.16,3.4-2.64Z"/>
    <g>
      <path class="st0" d="M414.23,207.96c-.51,1.64-4.24,1.64-4.95-1.41-.53-2.28-.48-19.8.14-21.84,1.09-3.56,4.8-2.43,4.8-.92v24.17Z"/>
      <path class="st0" d="M438.08,193.23c2.39-.02,2.75,2.67,1.63,4.58-.74,1.26-11.54,11.51-12.43,11.52-.98,0-2.89-1.55-2.89-2.65s12.39-13.44,13.69-13.45Z"/>
      <path class="st0" d="M385.93,193.22c.9,0,11.71,10.27,12.43,11.52,1.11,1.91.76,4.61-1.63,4.58-1.49-.02-13.88-12.46-13.58-14,.15-.75,2.01-2.1,2.77-2.1Z"/>
    </g>
  </g>
  <g>
    <path class="st0" d="M289.15,345.22v9.58h-24.34v6.41c0,1.94,1.66,3.6,3.6,3.6h20.74v9.5h-20.88c-7.13,0-12.96-5.83-12.96-12.96v-22.68c0-7.13,5.83-12.96,12.96-12.96h20.88l-2.88,9.58h-17.86c-1.94,0-3.6,1.58-3.6,3.6v11.16l4.82-4.83h19.51Z"/>
    <path class="st0" d="M334.87,374.31h-9.58v-14.62h-16.92l2.88-9.58h14.04v-11.23c0-2.02-1.58-3.6-3.6-3.6h-13.32c-1.94,0-3.6,1.58-3.6,3.6v35.43h-9.5v-35.64c0-7.13,5.83-12.96,12.96-12.96h13.68c7.13,0,12.96,5.83,12.96,12.96v35.64Z"/>
    <path class="st0" d="M380.59,361.35c0,7.13-5.83,12.96-12.96,12.96h-26.64l2.88-9.5h23.55c2.02,0,3.6-1.66,3.6-3.6v-2.81c0-2.02-1.58-3.6-3.6-3.6h-13.47c-7.13,0-12.96-5.83-12.96-12.96v-3.17c0-7.13,5.83-12.96,12.96-12.96h23.04l-2.88,9.58h-20.02c-1.94,0-3.6,1.58-3.6,3.6v2.74c0,2.02,1.66,3.6,3.6,3.6h13.54c7.13,0,12.96,5.83,12.96,12.96v3.17Z"/>
    <path class="st0" d="M405.93,351.48v22.83h-9.58v-25.78l2.23-3.31h-6.41l-13.03-19.51h11.45l10.51,15.7,10.58-15.7h11.45l-17.21,25.78Z"/>
    <path class="st0" d="M465.62,346.73v.22c-.14,7.06-5.9,12.75-12.96,12.75h-13.39l2.88-9.58h10.3c2.02,0,3.6-1.58,3.6-3.6v-7.63c0-2.02-1.58-3.6-3.6-3.6h-16.92v39.03h-9.5v-48.6h26.64c7.06,0,12.82,5.69,12.96,12.75v8.28ZM465.62,338.67v-.22.22ZM465.62,346.95v-.22.22Z"/>
    <path class="st0" d="M484.34,374.31c-7.13,0-12.96-5.83-12.96-12.96v-35.64h9.5v35.5c0,1.94,1.66,3.6,3.6,3.6h14.69l2.88,9.5h-17.71Z"/>
    <path class="st0" d="M544.53,374.31h-9.58v-14.62h-16.92l2.88-9.58h14.04v-11.23c0-2.02-1.58-3.6-3.6-3.6h-13.32c-1.94,0-3.6,1.58-3.6,3.6v35.43h-9.5v-35.64c0-7.13,5.83-12.96,12.96-12.96h13.68c7.13,0,12.96,5.83,12.96,12.96v35.64Z"/>
    <path class="st0" d="M570.95,351.48v22.83h-9.58v-25.78l2.23-3.31h-6.41l-13.03-19.51h11.45l10.51,15.7,10.58-15.7h11.45l-17.21,25.78Z"/>
  </g>
  <g>
    <path class="st0" d="M257.42,387.26v2.35l-3.7,1.12v-3.47h3.7ZM257.42,408.26v-16.32h-3.7v16.32h3.7Z"/>
    <path class="st0" d="M273.75,408.26h-3.72v-11.87c0-.42-.31-.73-.73-.73h-5.85v12.6h-3.7v-16.32h3.7v1.85l1.88-1.85h4.7c2.07,0,3.72,1.65,3.72,3.72v12.6Z"/>
    <path class="st0" d="M296.45,408.26h-8.62c-2.04,0-3.7-1.65-3.7-3.7v-8.9c0-2.07,1.65-3.72,3.7-3.72h8.62l-1.12,3.72h-6.75c-.42,0-.76.31-.76.73v7.42c0,.42.34.76.76.76h7.87v3.7Z"/>
    <path class="st0" d="M313.48,408.26h-3.72v-1.85l-1.85,1.85h-5.57c-2.04,0-3.7-1.65-3.7-3.7v-2.6c0-2.04,1.65-3.72,3.7-3.72h4.96l1.09,3.72h-5.29c-.42,0-.76.34-.76.73v1.12c0,.42.34.76.76.76h6.66v-8.18c0-.42-.31-.73-.73-.73h-8.9l1.12-3.72h8.51c2.07,0,3.72,1.65,3.72,3.72v12.6Z"/>
    <path class="st0" d="M340.08,408.26h-3.7v-11.87c0-.42-.34-.73-.76-.73h-5.82v12.6h-3.72v-11.87c0-.42-.31-.73-.73-.73h-5.85v12.6h-3.7v-16.32h3.7v1.85l1.88-1.85h4.7c1.51,0,2.8.9,3.39,2.18l2.18-2.18h4.73c2.04,0,3.7,1.65,3.7,3.72v12.6Z"/>
    <path class="st0" d="M357.24,404.56c0,2.04-1.65,3.7-3.72,3.7h-5.15l-1.12-3.7h5.54c.42,0,.73-.34.73-.76v-7.42c0-.42-.31-.73-.73-.73h-6.69v17.28h-3.7v-21h3.7v1.85l1.88-1.85h5.54c2.07,0,3.72,1.65,3.72,3.72v8.9Z"/>
    <path class="st0" d="M374.4,395.66v8.9c0,2.04-1.65,3.7-3.72,3.7h-7.42c-2.04,0-3.7-1.65-3.7-3.7v-8.9c0-2.07,1.65-3.72,3.7-3.72h7.42c2.07,0,3.72,1.65,3.72,3.72ZM370.68,396.39c0-.42-.31-.73-.73-.73h-5.94c-.42,0-.76.31-.76.73v7.42c0,.42.34.76.76.76h5.94c.42,0,.73-.34.73-.76v-7.42Z"/>
    <path class="st0" d="M388.49,387.26v2.35l-3.7,1.12v-3.47h3.7ZM388.49,408.26v-16.32h-3.7v16.32h3.7Z"/>
    <path class="st0" d="M404.81,408.26h-3.72v-11.87c0-.42-.31-.73-.73-.73h-5.85v12.6h-3.7v-16.32h3.7v1.85l1.88-1.85h4.7c2.07,0,3.72,1.65,3.72,3.72v12.6Z"/>
    <path class="st0" d="M429.2,391.93v12.63c0,2.04-1.65,3.7-3.72,3.7h-6.58c-2.04,0-3.7-1.65-3.7-3.7v-12.63h3.7v11.87c0,.42.34.76.76.76h5.1c.42,0,.73-.34.73-.76v-11.87h3.72Z"/>
    <path class="st0" d="M445.52,408.26h-3.72v-11.87c0-.42-.31-.73-.73-.73h-5.85v12.6h-3.7v-16.32h3.7v1.85l1.88-1.85h4.7c2.07,0,3.72,1.65,3.72,3.72v12.6Z"/>
    <path class="st0" d="M462.69,395.66v8.9c0,2.04-1.65,3.7-3.72,3.7h-7.42c-2.04,0-3.7-1.65-3.7-3.7v-8.9c0-2.07,1.65-3.72,3.7-3.72h7.42c2.07,0,3.72,1.65,3.72,3.72ZM458.96,396.39c0-.42-.31-.73-.73-.73h-5.94c-.42,0-.76.31-.76.73v7.42c0,.42.34.76.76.76h5.94c.42,0,.73-.34.73-.76v-7.42Z"/>
    <path class="st0" d="M487.91,404.56c0,2.04-1.65,3.7-3.72,3.7h-11.12l1.12-3.7h9.27c.42,0,.73-.34.73-.76v-1.12c0-.39-.31-.73-.73-.73h-6.69c-2.04,0-3.7-1.68-3.7-3.72v-2.58c0-2.07,1.65-3.72,3.7-3.72h10.02l-1.12,3.72h-8.15c-.42,0-.76.31-.76.73v1.12c0,.39.34.73.76.73h6.66c2.07,0,3.72,1.68,3.72,3.72v2.6Z"/>
    <path class="st0" d="M502.42,408.26h-8.62c-2.04,0-3.7-1.65-3.7-3.7v-8.9c0-2.07,1.65-3.72,3.7-3.72h8.62l-1.12,3.72h-6.75c-.42,0-.76.31-.76.73v7.42c0,.42.34.76.76.76h7.87v3.7Z"/>
    <path class="st0" d="M518.6,408.26h-3.72v-11.87c0-.42-.31-.73-.73-.73h-5.85v12.6h-3.7v-21h3.7v6.52l1.88-1.85h4.7c2.07,0,3.72,1.65,3.72,3.72v12.6Z"/>
    <path class="st0" d="M524.62,387.26v2.35l-3.7,1.12v-3.47h3.7ZM524.62,408.26v-16.32h-3.7v16.32h3.7Z"/>
    <path class="st0" d="M541.78,395.66v8.9c0,2.04-1.65,3.7-3.72,3.7h-7.42c-2.04,0-3.7-1.65-3.7-3.7v-8.9c0-2.07,1.65-3.72,3.7-3.72h7.42c2.07,0,3.72,1.65,3.72,3.72ZM538.06,396.39c0-.42-.31-.73-.73-.73h-5.94c-.42,0-.76.31-.76.73v7.42c0,.42.34.76.76.76h5.94c.42,0,.73-.34.73-.76v-7.42Z"/>
    <path class="st0" d="M556.43,408.26h-8.62c-2.04,0-3.7-1.65-3.7-3.7v-8.9c0-2.07,1.65-3.72,3.7-3.72h8.62l-1.12,3.72h-6.75c-.42,0-.76.31-.76.73v7.42c0,.42.34.76.76.76h7.87v3.7Z"/>
    <path class="st0" d="M570.93,408.26h-8.62c-2.04,0-3.7-1.65-3.7-3.7v-8.9c0-2.07,1.65-3.72,3.7-3.72h8.62l-1.12,3.72h-6.75c-.42,0-.76.31-.76.73v7.42c0,.42.34.76.76.76h7.87v3.7Z"/>
    <path class="st0" d="M587.96,395.66v8.9c0,2.04-1.65,3.7-3.72,3.7h-7.42c-2.04,0-3.7-1.65-3.7-3.7v-8.9c0-2.07,1.65-3.72,3.7-3.72h7.42c2.07,0,3.72,1.65,3.72,3.72ZM584.23,396.39c0-.42-.31-.73-.73-.73h-5.94c-.42,0-.76.31-.76.73v7.42c0,.42.34.76.76.76h5.94c.42,0,.73-.34.73-.76v-7.42Z"/>
  </g>
</svg>